<?xml version="1.0" encoding="UTF-8" standalone="no"?>
<svg width="122px" height="147px" viewBox="0 0 122 147" version="1.1" xmlns="http://www.w3.org/2000/svg" xmlns:xlink="http://www.w3.org/1999/xlink" xmlns:sketch="http://www.bohemiancoding.com/sketch/ns">
    <!-- Generator: Sketch 3.1.1 (8761) - http://www.bohemiancoding.com/sketch -->
    <title>Clipboard 6 + Rectangle 110</title>
    <desc>Created with Sketch.</desc>
    <defs></defs>
    <g id="Page-1" stroke="none" stroke-width="1" fill="none" fill-rule="evenodd" sketch:type="MSPage">
        <g id="8-Home" sketch:type="MSArtboardGroup" transform="translate(-259.000000, -158.000000)">
            <g id="Clipboard-6-+-Rectangle-110" sketch:type="MSLayerGroup" transform="translate(259.000000, 159.000000)">
                <path d="M69.4325737,4.64413519 L78.5717167,4.64413519 L78.5717167,4.65125558 C78.685279,4.64652429 78.7994446,4.64413519 78.9141668,4.64413519 C83.3913255,4.64413519 87.0207797,8.28282295 87.0207797,12.7713718 C87.0207797,12.8685322 87.0190791,12.9652945 87.0157061,13.0616302 L87.2573734,13.0616302 L87.2573734,13.6421471 L87.2573734,13.6421471 L115.008947,13.6421471 C118.864515,13.6421471 122,16.7758875 122,20.6415521 L122,139.000595 C122,142.858762 118.869999,146 115.008947,146 L7.10233842,146 C3.2467695,146 0.111284976,142.86626 0.111284976,139.000595 L0.111284976,20.6415521 C0.111284976,16.7833849 3.24128622,13.6421471 7.10233842,13.6421471 L34.8539116,13.6421471 L34.8539116,13.0616302 C34.8556122,12.9652945 34.8539116,12.8685322 34.8539116,12.7713718 C34.8539116,8.28282295 38.4833658,4.64413519 42.9605245,4.64413519 C43.1552183,4.64413519 43.3483092,4.65101608 43.5395682,4.66454851 L43.5395682,4.64413519 L52.420349,4.64413519 L52.420349,4.64413519 C52.5164803,4.21634813 52.6254515,3.82013999 52.7378257,3.49500652 C53.627372,0.921270672 55.5447898,1.02876041e-13 57.7261408,1.02876041e-13 C57.7667853,1.02876041e-13 57.815879,-0.00106155822 57.8721639,-0.00295130386 C57.9549795,-0.0582996261 58.3148288,-0.0620213262 58.7603268,-0.0477740639 C59.5779706,-0.0901549378 60.5812161,-0.127728409 60.9108815,-0.00109655761 C61.240547,-0.127728409 62.2437925,-0.0901549378 63.0614363,-0.0477740639 C63.5069343,-0.0620213262 63.8667836,-0.0582996261 63.9495992,-0.00295130387 C64.0058841,-0.00106155823 64.0549778,1.02876041e-13 64.0956223,1.02876041e-13 C66.2769733,1.02876041e-13 68.1943911,0.921270672 69.0839374,3.49500652 C69.1963115,3.82013999 69.3185045,4.21634813 69.4325737,4.64413519 Z M87.2573734,13.6421471 L93.9486685,13.6421471 C95.0481026,13.6421471 95.94303,14.5400743 95.94303,15.6477236 L95.94303,37.4695726 C95.94303,38.5859187 95.0501239,39.4751491 93.9486685,39.4751491 L28.1626165,39.4751491 C27.0631824,39.4751491 26.1682549,38.5772219 26.1682549,37.4695726 L26.1682549,15.6477236 C26.1682549,14.5313775 27.061161,13.6421471 28.1626165,13.6421471 L34.8539116,13.6421471 L34.8539116,21.7693837 C34.8539116,26.5785431 38.7498759,30.4771372 43.5661029,30.4771372 L78.5451821,30.4771372 C83.3567925,30.4771372 87.2573734,26.5687575 87.2573734,21.7693837 L87.2573734,13.6421471 L87.2573734,13.6421471 Z" id="Clipboard-6" fill="#02CC99" sketch:type="MSShapeGroup"></path>
                <path d="M64.7142928,106.3308 L58.0464969,113.235505 C54.9216822,116.471345 49.7683909,116.560664 46.5340675,113.437314 L25.7000356,93.318123 C22.465888,90.194943 22.376128,85.0404696 25.4999438,81.8056636 L26.5490615,80.7192704 C29.6738762,77.4834301 34.8271675,77.3941115 38.0614909,80.5174613 L52.177967,94.1495838 C52.4859843,93.671539 52.8492091,93.2187834 53.2676418,92.8003507 L83.8242579,62.2437346 C86.9971976,59.070795 92.1500963,59.0733628 95.3298914,62.253158 L96.3978095,63.3210761 C99.5786215,66.501888 99.5818237,71.6521188 96.4072329,74.8267095 L65.8506168,105.383326 C65.4948739,105.739069 65.1142421,106.054894 64.7142928,106.3308 Z" id="Rectangle-109" fill="#FFFFFF" sketch:type="MSShapeGroup"></path>
            </g>
        </g>
    </g>
</svg>